<svg fill="none" viewBox="0 0 64 64" id="walletconnect" xmlns="http://www.w3.org/2000/svg">
        <g clip-path="url(#cya)">
            <path fill="#4084ED"
                d="M32 64c17.673 0 32-14.327 32-32C64 14.327 49.673 0 32 0 14.327 0 0 14.327 0 32c0 17.673 14.327 32 32 32Z" />
            <path fill="#fff"
                d="M17.83 22.86c7.825-7.813 20.515-7.813 28.34 0l.94.935a.99.99 0 0 1 0 1.413l-3.218 3.22a.51.51 0 0 1-.706 0l-1.3-1.3c-5.46-5.454-14.312-5.454-19.772 0l-1.387 1.388a.51.51 0 0 1-.705 0L16.79 25.31a.99.99 0 0 1 0-1.414l1.04-1.036Zm35 6.653 2.873 2.866a.99.99 0 0 1 0 1.413L42.765 46.706a.995.995 0 0 1-1.411 0l-9.175-9.164a.25.25 0 0 0-.359 0l-9.174 9.164a.995.995 0 0 1-1.411 0L8.297 33.792a.99.99 0 0 1 0-1.413l2.872-2.866a.995.995 0 0 1 1.412 0l9.174 9.165a.25.25 0 0 0 .359 0l9.174-9.165a.995.995 0 0 1 1.412 0l9.174 9.165c.099.1.26.1.359 0l9.174-9.165a1.01 1.01 0 0 1 1.424 0Z" />
        </g>
        <defs>
            <clipPath id="cya">
                <path fill="#fff" d="M0 0h64v64H0z" />
            </clipPath>
        </defs>
    </svg>